Coordinates
version=1
nRows=21
nColumns=38
inDegrees=no

Units are S.I. units (second, meters, Newtons, ...)
If the header above contains a line with 'inDegrees', this indicates whether rotational values are in degrees (yes) or radians (no).

endheader
time	pelvis_tilt	pelvis_list	pelvis_rotation	pelvis_tx	pelvis_ty	pelvis_tz	hip_flexion_r	hip_adduction_r	hip_rotation_r	knee_angle_r	ankle_angle_r	subtalar_angle_r	mtp_angle_r	hip_flexion_l	hip_adduction_l	hip_rotation_l	knee_angle_l	ankle_angle_l	subtalar_angle_l	mtp_angle_l	lumbar_extension	lumbar_bending	lumbar_rotation	arm_flex_r	arm_add_r	arm_rot_r	elbow_flex_r	pro_sup_r	wrist_flex_r	wrist_dev_r	arm_flex_l	arm_add_l	arm_rot_l	elbow_flex_l	pro_sup_l	wrist_flex_l	wrist_dev_l
1.44	0.0968739	0.0107042	-0.067041	0.837614	1.02462	-0.349795	-0.346535	-0.0223522	-0.0999361	-0.765173	-0.431411	-0.0275998	0.000498375	0.259583	0.0585027	-0.0415444	-0.143931	0.0787338	0.00864625	-0.0660926	-0.35533	-0.0994887	0.105297	-0.298059	-0.373762	-0.228529	1.82571	1.39363	-0.00754823	-0.0582694	-0.7014	-0.211995	-0.32209	1.73826	1.69292	0.0670611	-0.0451712
1.45	0.10415	0.0105041	-0.0657034	0.836875	1.0205	-0.350353	-0.31959	-0.0283001	-0.095383	-0.859045	-0.411268	-0.0275998	0.000498375	0.260704	0.0637384	-0.032589	-0.194234	0.0828698	0.00864625	-0.0660926	-0.364916	-0.0991339	0.103974	-0.308662	-0.367948	-0.237026	1.82265	1.39523	-0.00754823	-0.0582694	-0.675084	-0.226743	-0.306321	1.73897	1.6928	0.0670611	-0.0451712
1.46	0.111245	0.0134272	-0.064229	0.835971	1.01544	-0.351114	-0.289306	-0.0386375	-0.0925342	-0.954121	-0.386022	-0.0275998	0.000498375	0.26522	0.0726287	-0.0259067	-0.259589	0.0881766	0.00864625	-0.0660926	-0.373867	-0.101428	0.102212	-0.321402	-0.361116	-0.24742	1.8174	1.39644	-0.00754823	-0.0582694	-0.643108	-0.244779	-0.286065	1.73619	1.69418	0.0670611	-0.0451712
1.47	0.117816	0.019406	-0.0623817	0.834954	1.00954	-0.352065	-0.255917	-0.0534846	-0.0923258	-1.04812	-0.357343	-0.0275998	0.000498375	0.271916	0.0852039	-0.0210386	-0.335058	0.0966957	0.00864625	-0.0660926	-0.381935	-0.106362	0.099046	-0.335379	-0.353446	-0.258727	1.80931	1.39743	-0.00754823	-0.0582694	-0.606164	-0.264852	-0.262314	1.72961	1.69639	0.0670611	-0.0451712
1.48	0.123712	0.0281699	-0.059935	0.833862	1.00308	-0.353149	-0.219634	-0.0724371	-0.0949624	-1.13901	-0.326417	-0.0275998	0.000498375	0.279281	0.101175	-0.0173969	-0.415654	0.110646	0.00864625	-0.0660926	-0.389125	-0.11379	0.0935081	-0.349495	-0.34508	-0.269806	1.79769	1.39826	-0.00754823	-0.0582694	-0.56497	-0.285576	-0.236243	1.71902	1.69877	0.0670611	-0.0451712
1.49	0.128837	0.0391631	-0.05678	0.83269	0.996427	-0.354276	-0.180647	-0.0944948	-0.099854	-1.22498	-0.294076	-0.0275998	0.000498375	0.285582	0.11986	-0.0143792	-0.496556	0.131768	0.00864625	-0.0660926	-0.395594	-0.123313	0.0851668	-0.362918	-0.336034	-0.279822	1.78204	1.39886	-0.00754823	-0.0582694	-0.519938	-0.305758	-0.208742	1.70419	1.70091	0.0670611	-0.0451712
1.5	0.133227	0.0516138	-0.0529797	0.831387	0.989972	-0.355353	-0.139196	-0.118143	-0.1058	-1.3044	-0.260972	-0.0275998	0.000498375	0.288921	0.140217	-0.0114373	-0.573231	0.160732	0.00864625	-0.0660926	-0.40162	-0.134309	0.0741102	-0.375126	-0.32625	-0.288204	1.76216	1.39903	-0.00754823	-0.0582694	-0.471328	-0.324466	-0.180504	1.68502	1.70284	0.0670611	-0.0451712
1.51	0.137082	0.0646538	-0.0487489	0.829886	0.984018	-0.356286	-0.0956964	-0.141593	-0.111365	-1.37584	-0.227688	-0.0275998	0.000498375	0.287339	0.161002	-0.00809699	-0.64163	0.196884	0.00864625	-0.0660926	-0.407666	-0.146094	0.0604877	-0.385646	-0.31575	-0.294226	1.73819	1.39837	-0.00754823	-0.0582694	-0.419775	-0.3409	-0.152535	1.66205	1.70509	0.0670611	-0.0451712
1.52	0.140631	0.0773407	-0.0444203	0.828161	0.978808	-0.356998	-0.0506778	-0.162987	-0.115236	-1.43798	-0.194805	-0.0275998	0.000498375	0.279126	0.180846	-0.00396551	-0.698415	0.238371	0.00864625	-0.0660926	-0.414114	-0.157872	0.0447017	-0.394331	-0.304617	-0.297316	1.71073	1.39641	-0.00754823	-0.0582694	-0.366183	-0.354494	-0.125868	1.63637	1.70854	0.0670611	-0.0451712
1.53	0.144025	0.0887158	-0.0403615	0.82624	0.974574	-0.357435	-0.00471732	-0.180658	-0.116551	-1.4897	-0.162844	-0.0275998	0.000498375	0.263111	0.198398	0.00125367	-0.741196	0.282528	0.00864625	-0.0660926	-0.421083	-0.168754	0.0273909	-0.401464	-0.293008	-0.297217	1.68088	1.39268	-0.00754823	-0.0582694	-0.311719	-0.364925	-0.101452	1.60956	1.71416	0.0670611	-0.0451712
1.54	0.147281	0.0978967	-0.0368815	0.824198	0.971506	-0.357558	0.0416011	-0.193349	-0.115091	-1.53009	-0.132173	-0.0275998	0.000498375	0.238818	0.212479	0.00773409	-0.768639	0.326327	0.00864625	-0.0660926	-0.42836	-0.177823	0.00931798	-0.407718	-0.281155	-0.294048	1.65014	1.38687	-0.00754823	-0.0582694	-0.257798	-0.372061	-0.0801109	1.58362	1.72267	0.0670611	-0.0451712
1.55	0.150252	0.104176	-0.0341617	0.822137	0.969703	-0.357367	0.0877013	-0.200341	-0.111298	-1.55847	-0.102986	-0.0275998	0.000498375	0.206473	0.222198	0.0155021	-0.780431	0.366725	0.00864625	-0.0660926	-0.435451	-0.184216	-0.00876245	-0.414026	-0.269359	-0.288293	1.62029	1.37899	-0.00754823	-0.0582694	-0.205994	-0.375903	-0.0624873	1.56078	1.73429	0.0670611	-0.0451712
1.56	0.152666	0.107105	-0.0322233	0.820176	0.969167	-0.356931	0.133028	-0.201494	-0.106152	-1.57443	-0.0753567	-0.0275998	0.000498375	0.166903	0.227021	0.0244207	-0.77714	0.400905	0.00864625	-0.0660926	-0.44167	-0.18721	-0.0262005	-0.421401	-0.257948	-0.280747	1.59317	1.36943	-0.00754823	-0.0582694	-0.15788	-0.376566	-0.0489586	1.54318	1.7486	0.0670611	-0.0451712
1.57	0.154177	0.106512	-0.030927	0.818432	0.969831	-0.356344	0.177044	-0.197178	-0.100942	-1.57776	-0.0493755	-0.0275998	0.000498375	0.121382	0.226783	0.0341882	-0.760029	0.426439	0.00864625	-0.0660926	-0.446266	-0.186309	-0.0425125	-0.430766	-0.247227	-0.272405	1.57039	1.35894	-0.00754823	-0.0582694	-0.114839	-0.374271	-0.0395367	1.53263	1.76453	0.0670611	-0.0451712
1.58	0.154412	0.102469	-0.0300104	0.817003	0.97158	-0.355688	0.219214	-0.18813	-0.0969906	-1.56836	-0.02528	-0.0275998	0.000498375	0.0714584	0.22164	0.0443356	-0.730896	0.44139	0.00864625	-0.0660926	-0.448541	-0.181282	-0.0574038	-0.442796	-0.23742	-0.26433	1.55316	1.34861	-0.00754823	-0.0582694	-0.0778916	-0.369374	-0.0338063	1.53029	1.78043	0.0670611	-0.0451712
1.59	0.153041	0.0952612	-0.0291503	0.815969	0.974268	-0.355023	0.259009	-0.175244	-0.0953761	-1.54624	-0.00349805	-0.0275998	0.000498375	0.0188141	0.211988	0.054215	-0.69193	0.44438	0.00864625	-0.0660926	-0.447935	-0.172173	-0.0707537	-0.457825	-0.228616	-0.257515	1.54211	1.33962	-0.00754823	-0.0582694	-0.0476068	-0.362378	-0.0309411	1.53657	1.79438	0.0670611	-0.0451712
1.6	0.149812	0.0853131	-0.0280392	0.815388	0.97773	-0.3544	0.295902	-0.159378	-0.0966831	-1.51141	0.0154117	-0.0275998	0.000498375	-0.0348455	0.19838	0.0629949	-0.645607	0.434627	0.00864625	-0.0660926	-0.444085	-0.159282	-0.0825778	-0.475814	-0.220747	-0.252771	1.53727	1.33313	-0.00754823	-0.0582694	-0.0240843	-0.353934	-0.029806	1.55114	1.80442	0.0670611	-0.0451712
1.61	0.144598	0.0731312	-0.0264599	0.81529	0.9818	-0.353844	0.329351	-0.141199	-0.100841	-1.46385	0.030898	-0.0275998	0.000498375	-0.087896	0.181459	0.0696906	-0.594567	0.411965	0.00864625	-0.0660926	-0.436871	-0.143127	-0.0929774	-0.496375	-0.213602	-0.250634	1.5381	1.32998	-0.00754823	-0.0582694	-0.00701079	-0.344805	-0.0291326	1.57302	1.80902	0.0670611	-0.0451712
1.62	0.137438	0.0592662	-0.0243396	0.81567	0.986319	-0.353337	0.358777	-0.121138	-0.107096	-1.40355	0.0425629	-0.0275998	0.000498375	-0.138901	0.161935	0.0732561	-0.541471	0.376817	0.00864625	-0.0660926	-0.426445	-0.124406	-0.102091	-0.518847	-0.206889	-0.251314	1.54365	1.33052	-0.00754823	-0.0582694	0.00424283	-0.335802	-0.0277158	1.60082	1.80743	0.0670611	-0.0451712
1.63	0.128551	0.0443047	-0.0217711	0.816494	0.991133	-0.35284	0.383555	-0.0994762	-0.114141	-1.33056	0.0502716	-0.0275998	0.000498375	-0.186697	0.140585	0.0727314	-0.488838	0.330137	0.00864625	-0.0660926	-0.413211	-0.103953	-0.110054	-0.542403	-0.200315	-0.254693	1.55269	1.33449	-0.00754823	-0.0582694	0.0105132	-0.327705	-0.0245702	1.63296	1.7999	0.0670611	-0.0451712
1.64	0.118327	0.0288845	-0.0190011	0.817704	0.996093	-0.35232	0.403058	-0.0765069	-0.120373	-1.24511	0.054224	-0.0275998	0.000498375	-0.230443	0.118278	0.0674165	-0.43893	0.273358	0.00864625	-0.0660926	-0.397784	-0.0827075	-0.116968	-0.566159	-0.193652	-0.26037	1.56394	1.34112	-0.00754823	-0.0582694	0.0127414	-0.321191	-0.0190247	1.66783	1.78767	0.0670611	-0.0451712
